<svg xmlns="http://www.w3.org/2000/svg" viewBox="0 0 128 128">
  <defs>
    <radialGradient id="bgGlow" cx="50%" cy="45%" r="72%">
      <stop offset="0%" stop-color="#0b1020"/>
      <stop offset="55%" stop-color="#0a0f1c"/>
      <stop offset="100%" stop-color="#05070d"/>
    </radialGradient>
    <radialGradient id="flame" cx="50%" cy="50%" r="70%">
      <stop offset="0%" stop-color="#fffbed"/>
      <stop offset="18%" stop-color="#ffe9b4"/>
      <stop offset="45%" stop-color="#ffbf5c"/>
      <stop offset="78%" stop-color="#ff7a2b" stop-opacity="0.98"/>
      <stop offset="100%" stop-color="#ff4e18" stop-opacity="0.0"/>
    </radialGradient>
    <radialGradient id="flameCore" cx="50%" cy="50%" r="50%">
      <stop offset="0%" stop-color="#ffffff" stop-opacity="1"/>
      <stop offset="100%" stop-color="#ffffff" stop-opacity="0"/>
    </radialGradient>
    <linearGradient id="lanternEdge" x1="0%" y1="0%" x2="100%" y2="100%">
      <stop offset="0%" stop-color="#8b5cf6"/>
      <stop offset="50%" stop-color="#4f46e5"/>
      <stop offset="100%" stop-color="#06b6d4"/>
    </linearGradient>
    <filter id="shadow" x="-30%" y="-30%" width="160%" height="160%">
      <feDropShadow dx="0" dy="5" stdDeviation="5" flood-color="#000" flood-opacity="0.65"/>
    </filter>
    <filter id="innerGlow" x="-30%" y="-30%" width="160%" height="160%">
      <feGaussianBlur in="SourceGraphic" stdDeviation="1.8" result="b"/>
      <feComposite in="b" in2="SourceGraphic" operator="lighter"/>
    </filter>
    <filter id="flameBloom" x="-45%" y="-45%" width="190%" height="190%">
      <feGaussianBlur stdDeviation="7.5" result="g"/>
      <feColorMatrix in="g" type="matrix" values="1 0 0 0 0  0 1 0 0 0  0 0 1 0 0  0 0 0 0.55 0"/>
    </filter>
    <filter id="flameBloomStrong" x="-55%" y="-55%" width="210%" height="210%">
      <feGaussianBlur stdDeviation="11" result="g2"/>
      <feColorMatrix in="g2" type="matrix" values="1 0 0 0 0  0 1 0 0 0  0 0 1 0 0  0 0 0 0.62 0"/>
    </filter>
  </defs>

  <!-- Dark fantasy backdrop with subtle glow -->
  <rect x="6" y="6" width="116" height="116" rx="24" fill="url(#bgGlow)"/>
  <rect x="6" y="6" width="116" height="116" rx="24" fill="none" stroke="#0f172a" stroke-width="2"/>
  <rect x="7.5" y="7.5" width="113" height="113" rx="22.5" fill="none" stroke="url(#lanternEdge)" stroke-opacity="0.4"/>

  <!-- Lantern silhouette -->
  <g filter="url(#shadow)">
    <!-- handle -->
    <path d="M64 22c-7.5 0-13.5 6-13.5 13.5 0 1.6 0.27 3.1 0.77 4.5l6.1-2.1c-0.24-0.76-0.37-1.58-0.37-2.4 0-4.05 3.3-7.35 7.35-7.35s7.35 3.3 7.35 7.35c0 0.82-0.13 1.64-0.37 2.4l6.1 2.1c.5-1.4.77-2.9.77-4.5C77.5 28 71.5 22 64 22z" fill="#0f172a" stroke="url(#lanternEdge)" stroke-width="1.5"/>
    <!-- body frame -->
    <path d="M40 40l-12 18 12 34 48 0 12-34-12-18z" fill="#0b1220" stroke="url(#lanternEdge)" stroke-width="2.6"/>
    <!-- inner chamber -->
    <path d="M50 48l-6 10 6 24h28l6-24-6-10z" fill="#0c1526" stroke="#93c5fd" stroke-opacity="0.55" stroke-width="1.6"/>
    <!-- base cap -->
    <rect x="46" y="88" width="36" height="6" rx="2.5" fill="#0e1626" stroke="#27324a" stroke-width="1"/>
    <!-- crown cap -->
    <rect x="52" y="36" width="24" height="6" rx="2.5" fill="#0e1626" stroke="#27324a" stroke-width="1"/>
  </g>

  <!-- Ethereal flame -->
  <g filter="url(#innerGlow)">
    <!-- strong outer bloom to pop at small sizes -->
    <g filter="url(#flameBloomStrong)">
      <circle cx="64" cy="70" r="22" fill="url(#flame)"/>
    </g>
    <!-- primary flame body -->
    <g filter="url(#flameBloom)">
      <ellipse cx="64" cy="70" rx="18" ry="26" fill="url(#flame)"/>
    </g>
    <!-- inner tongue highlight -->
    <path d="M64 50.5c-8.2 7-8.2 14.5-4.6 18.4 2.5 3.3 3 7.2 2.8 11 0 0 2.2-2.8 4-7.1 1.4-3.6 4.2-7.7 8.2-9.7 3.9-2 5-8.2-10.4-12.6z" fill="#fff7d6" fill-opacity="0.98"/>
    <!-- bright core -->
    <circle cx="64" cy="66" r="3.4" fill="url(#flameCore)"/>
  </g>

  <!-- Cursor tip motif (subtle) -->
  <path d="M28 100l16-6 4 12z" fill="#0e1322" stroke="url(#lanternEdge)" stroke-width="1.6" opacity="0.9"/>

  <!-- Rim sheen -->
  <path d="M20 24c22-12 66-12 88 0" fill="none" stroke="url(#lanternEdge)" stroke-opacity="0.45" stroke-width="2.2"/>
</svg>
