<svg xmlns="http://www.w3.org/2000/svg" viewBox="0 0 1920 1080" preserveAspectRatio="xMidYMid slice">
  <defs>
    <linearGradient id="g1" x1="0" y1="0" x2="0" y2="1">
      <stop offset="0%" stop-color="#0b1220"/>
      <stop offset="100%" stop-color="#05070c"/>
    </linearGradient>
    <radialGradient id="g2" cx="50%" cy="-10%" r="60%">
      <stop offset="0%" stop-color="#90a4ae" stop-opacity="0.10"/>
      <stop offset="100%" stop-color="#90a4ae" stop-opacity="0"/>
    </radialGradient>
    <radialGradient id="g3" cx="80%" cy="90%" r="40%">
      <stop offset="0%" stop-color="#7dd3fc" stop-opacity="0.06"/>
      <stop offset="100%" stop-color="#7dd3fc" stop-opacity="0"/>
    </radialGradient>
  </defs>
  <rect width="100%" height="100%" fill="url(#g1)"/>
  <rect width="100%" height="100%" fill="url(#g2)"/>
  <rect width="100%" height="100%" fill="url(#g3)"/>
  <!-- subtle grid lines -->
  <g stroke="#223042" stroke-opacity="0.15" stroke-width="1">
    <g>
      <path d="M0 120 H1920M0 240 H1920M0 360 H1920M0 480 H1920M0 600 H1920M0 720 H1920M0 840 H1920M0 960 H1920"/>
      <path d="M120 0 V1080M240 0 V1080M360 0 V1080M480 0 V1080M600 0 V1080M720 0 V1080M840 0 V1080M960 0 V1080M1080 0 V1080M1200 0 V1080M1320 0 V1080M1440 0 V1080M1560 0 V1080M1680 0 V1080M1800 0 V1080"/>
    </g>
  </g>
  <!-- vignette -->
  <rect width="100%" height="100%" fill="#000" opacity="0.35"/>
</svg>
